<?xml version="1.0" encoding="UTF-8"?><svg xmlns="http://www.w3.org/2000/svg" viewBox="0 0 245.51 208.14"><defs><style>.cls-1{fill:#0198cb;}</style></defs><g id="Layer_2" data-name="Layer 2"><g id="Layer_1-2" data-name="Layer 1"><path class="cls-1" d="M1.64,152.66C3.17,150,78.17,23.51,86.44,10s31.74-15.66,31.74,7.83V159.62c0,9.24-4.78,23.48-23.76,23.48-14.94,0-19.73-13.27-19.72-20,0,0-.06-31.31-.06-42.18s-12.12-10.88-12.12.43V163.1c0,17-14.46,20-32.61,20C4,183.1-3.8,162.06,1.64,152.66Z"/><path class="cls-1" d="M129.92,15.46v88.39c0,9.46,4.24,12.39,14.35,12.39h35.88c10.43,0,10.76,10.76,0,10.76H153.4c-8.15,0-23.48,8.48-23.48,27.73s10.44,28.37,22.83,28.37h71.43c13,0,27.07-19.24,18.91-33.92s-27.39-46.12-34.57-57.63-9.78-8.25-17-8.25-15.65.33-23.48.33-8.48-12.07-.33-12.07,10.11-.33,13.38-.33,12.52-8.15,6.58-17.28-18-26.84-25.5-38.49C158.05,9,154.71,0,145.25,0,133.18,0,129.92,7.89,129.92,15.46Z"/><path class="cls-1" d="M14.82,192.08h4l2.8,14H18.16l-.66-3.8H10.41l-2.79,3.8H4.13Zm-3.11,8.42h5.5l-1-6.16h-.05Z"/><path class="cls-1" d="M27.62,192.08h6c3.72,0,6.09.94,5.32,3.68-.62,2.22-2.7,2.91-4.83,3.25v0c2.63.43,2.6,1.63,2.65,3.11l.09,4h-3.4l-.07-3c-.06-2.24-.25-3-3.31-3H28.72l-1.68,6H23.69Zm1.57,6.32h1.32c2.09,0,4.35-.3,4.93-2.37.41-1.47-.42-2.26-2.32-2.26H30.49Z"/><path class="cls-1" d="M41,192.08h3.49l2,11.28h.06l8.4-11.28h3.49l-10.71,14h-4Z"/><path class="cls-1" d="M59.94,192.08h3.35l-3.93,14H56Z"/><path class="cls-1" d="M67.45,192.08h4.12l4.72,10.33h0l2.9-10.33H82.3l-3.93,14H74.62l-5-10.84h-.06l-3,10.84H63.52Z"/><path class="cls-1" d="M104.83,194.44a15.08,15.08,0,0,0-4.7-.89c-1.66,0-3.12.53-3.46,1.72-.69,2.48,8.62,2.85,7.44,7.08-.74,2.62-4.1,4-8.39,4a27.7,27.7,0,0,1-5.3-.59l.69-2.46a11,11,0,0,0,5.2,1.37c2.63,0,3.76-1,4-2,.85-3.05-8.51-3.23-7.4-7.21.7-2.5,4.08-3.62,7.8-3.62a33.68,33.68,0,0,1,4.73.38Z"/><path class="cls-1" d="M114.51,192.08h4l2.8,14h-3.49l-.66-3.8h-7.09l-2.78,3.8h-3.49Zm-3.1,8.42h5.5l-1-6.16h0Z"/><path class="cls-1" d="M127.37,192.08h4.12l4.72,10.33h.06l2.89-10.33h3.06l-3.92,14h-3.75l-5-10.84h-.06l-3,10.84h-3.06Z"/><path class="cls-1" d="M156.63,205.05a17,17,0,0,1-6.57,1.28c-5.89,0-7.53-3.13-6.37-7.25,1.25-4.5,4.19-7.22,9.83-7.22,4.61,0,6.13,1.63,5.48,3.92h-3.72c.28-1-.09-2.23-2.24-2.23-3.4,0-4.85,2.6-5.67,5.53-.71,2.56-.84,5.57,3.16,5.57a6.25,6.25,0,0,0,3-.56l1.25-4.47h-3.72l.48-1.68h7.07Z"/><path class="cls-1" d="M161.17,199.09c1.15-4.08,3.83-7.23,10-7.23s7.11,3.15,6,7.23-3.86,7.24-10,7.24S160,203.18,161.17,199.09Zm6.43,5.56c3.38,0,5-2.57,5.85-5.56s.64-5.54-2.74-5.54-5,2.56-5.84,5.54S164.2,204.65,167.6,204.65Z"/><path class="cls-1" d="M178.35,203.32h3.58l-2.7,4.82h-2.74Z"/><path class="cls-1" d="M196.75,192.08h3.35l-3.92,14h-3.35Z"/><path class="cls-1" d="M204.26,192.08h4.11l4.73,10.33h.06l2.89-10.33h3l-3.92,14h-3.74l-5-10.84h0l-3,10.84h-3.06Z"/><path class="cls-1" d="M232.44,205.52a22.11,22.11,0,0,1-5.6.81c-5.76,0-7.49-2.93-6.26-7.3,1.15-4.12,4.16-7.17,9.79-7.17,4.58,0,6.11,1.89,5.5,4.06h-3.72c.31-1.09.32-2.37-2.25-2.37-3.47,0-4.91,2.92-5.53,5.12-.94,3.35-.28,5.79,3.76,5.79a14.35,14.35,0,0,0,4.9-1Z"/><path class="cls-1" d="M235.5,203.32h3.92l-.78,2.79h-3.92Z"/></g></g></svg>