<?xml version="1.0" encoding="UTF-8"?><svg xmlns="http://www.w3.org/2000/svg" viewBox="0 0 175.75 24.38"><defs><style>.cls-1{fill:#005941;}.cls-1,.cls-3{fill-rule:evenodd;}.cls-2,.cls-3{fill:#fff;}</style></defs><g id="Layer_2" data-name="Layer 2"><g id="Layer_1-2" data-name="Layer 1"><polygon class="cls-1" points="17.68 0 164.07 0 164.74 0 165.45 0.04 166.12 0.12 166.79 0.22 167.44 0.35 168.08 0.51 168.71 0.69 169.32 0.92 169.89 1.16 170.46 1.42 171.01 1.73 171.51 2.06 172.02 2.4 172.49 2.79 172.94 3.17 173.37 3.62 173.75 4.07 174.12 4.56 174.44 5.05 174.73 5.58 175 6.13 175.22 6.67 175.4 7.26 175.54 7.86 175.65 8.45 175.71 9.06 175.75 9.69 175.73 10.32 175.67 10.95 175.56 11.58 175.42 12.21 175.26 12.84 175.04 13.49 174.79 14.1 174.53 14.71 174.2 15.32 173.88 15.89 173.51 16.46 173.1 17.01 172.69 17.54 172.25 18.05 171.78 18.54 171.31 19.03 170.8 19.48 170.27 19.92 169.75 20.35 169.18 20.76 168.6 21.14 168.01 21.51 167.43 21.86 166.79 22.18 166.18 22.51 165.53 22.79 164.88 23.06 164.23 23.3 163.56 23.52 162.87 23.71 162.19 23.89 161.5 24.03 160.79 24.16 160.08 24.26 159.39 24.34 158.67 24.38 157.98 24.38 11.6 24.38 10.93 24.38 10.24 24.34 9.54 24.26 8.87 24.16 8.22 24.03 7.59 23.87 6.96 23.69 6.37 23.46 5.78 23.22 5.23 22.96 4.68 22.65 4.15 22.32 3.66 21.96 3.19 21.59 2.75 21.16 2.34 20.74 1.95 20.29 1.59 19.8 1.26 19.29 0.98 18.76 0.73 18.21 0.51 17.64 0.33 17.07 0.18 16.48 0.08 15.87 0.02 15.26 0 14.63 0.02 14 0.08 13.37 0.18 12.74 0.33 12.09 0.49 11.44 0.71 10.81 0.96 10.2 1.24 9.59 1.55 8.99 1.87 8.43 2.24 7.88 2.65 7.33 3.05 6.82 3.48 6.31 3.95 5.82 4.42 5.33 4.92 4.88 5.43 4.44 5.98 4.01 6.53 3.6 7.1 3.24 7.69 2.87 8.28 2.5 8.89 2.18 9.52 1.87 10.15 1.59 10.81 1.32 11.46 1.08 12.13 0.85 12.8 0.67 13.49 0.49 14.18 0.35 14.88 0.22 15.59 0.12 16.3 0.04 17.01 0 17.68 0 17.68 0"/><path class="cls-2" d="M17.73,1.65H164.05a13.32,13.32,0,0,1,3.95.57,9.07,9.07,0,0,1,4.42,2.84,7.25,7.25,0,0,1,1.67,4.69,8.8,8.8,0,0,1-.41,2.61h0a10.79,10.79,0,0,1-1,2.39A13.63,13.63,0,0,1,171,16.92a18.17,18.17,0,0,1-13.09,5.81H11.64a13.25,13.25,0,0,1-3.89-.55,9,9,0,0,1-4.44-2.85,7.3,7.3,0,0,1-1.65-4.71h0a9.34,9.34,0,0,1,.42-2.69h0A11.23,11.23,0,0,1,3.13,9.57,13.35,13.35,0,0,1,4.7,7.43a18.09,18.09,0,0,1,13-5.78Zm146.32,1.5H17.73A16.58,16.58,0,0,0,5.81,8.42a13.26,13.26,0,0,0-1.4,1.9,10.1,10.1,0,0,0-.91,2h0a8,8,0,0,0-.35,2.25h0a5.87,5.87,0,0,0,1.32,3.77,7.55,7.55,0,0,0,3.71,2.36,11.9,11.9,0,0,0,3.46.48h146.3a16.66,16.66,0,0,0,12-5.3A11.75,11.75,0,0,0,171.33,14a9.18,9.18,0,0,0,.91-2.06h0a7.18,7.18,0,0,0,.35-2.18A5.8,5.8,0,0,0,171.27,6a7.6,7.6,0,0,0-3.71-2.36,12,12,0,0,0-3.51-.5Z"/><path class="cls-3" d="M141.29,11.78a5.91,5.91,0,0,1,1,0,10.41,10.41,0,0,0,5.33-1.18,3.74,3.74,0,0,0,1.69-2.83c0-1.28-1.61-1.73-3.46-1.73-.77,0-1.54,0-2.32,0l-2.24,5.74Zm-9.72,7.65L137.73,5h11.66a12.62,12.62,0,0,1,3.65.24c2.07.55,2.76,1.1,2.85,2.38,0,1.87-1.08,3.46-3.48,4.4a31.35,31.35,0,0,1-4.48.59l6.19,6.87h-7.88l-4.42-6.53H140.6l-2,6.53Z"/><path class="cls-3" d="M101,19.43,118.75,5h3.17l5.7,14.48H121l-1.46-4.35h-10l-4.64,4.35Zm18.21-5.73L117.5,8.85l-6,4.85Z"/><path class="cls-3" d="M35,19.43,52.75,5H55.9l5.72,14.48H55l-1.47-4.35h-10l-4.62,4.35ZM53.2,13.7,51.51,8.85l-6,4.85Z"/><polygon class="cls-3" points="63.94 19.43 73.75 4.95 77.52 4.95 83.48 14.9 95.75 4.95 101.14 4.95 98.76 19.43 91.88 19.43 94.04 9.61 81.61 19.43 78.98 19.43 73.67 10.2 68.11 19.43 63.94 19.43 63.94 19.43"/><polygon class="cls-3" points="16.3 19.43 21.94 4.84 28.88 4.84 23.57 17.6 33.44 17.6 32.52 19.43 16.3 19.43 16.3 19.43"/></g></g></svg>