<?xml version="1.0" encoding="UTF-8"?><svg xmlns="http://www.w3.org/2000/svg" viewBox="0 0 142.6 56.64" class="nav-bar__home-logo">
    <title>Jones Contractors</title>
    <g class="logo-image" fill="#EE7623">
        <path d="M75.69,22.42H64.46V0H56V22H49.63V15.31H41.17V23.8s.14,1.72,3.58,1.72H56V45.65s0,1.78,3.24,1.78H76.07c3.11,0,3.21-1.83,3.21-1.83V41.47H70.85v2.4H64.48V26h6.37v5.61h8.5V24.17S79.13,22.42,75.69,22.42Z"></path>
    </g>
    <g class="logo-text" fill="#76777a">
        <path d="M0,37.14H1.82v.63c0,.54.24.75.82.75h.74c.61,0,1-.09,1-.75V33.05H6.22V38c0,2-.91,2.36-2.61,2.36H2.39C.64,40.31,0,39.67,0,38Z"></path>
        <path d="M7.35,35.57c0-2.1,1-2.6,2.69-2.6h3c1.68,0,2.68.5,2.68,2.6v2.14c0,2.1-1,2.6-2.68,2.6H10c-1.68,0-2.69-.5-2.69-2.6ZM9.27,37c0,1,.19,1.43,1.07,1.43h2.39c.89,0,1.07-.39,1.07-1.43v-.78c0-.89-.18-1.43-1.17-1.43H10.44c-1,0-1.17.54-1.17,1.43Z"></path>
        <path d="M16.85,33.05h2.9l3.51,5.22h0V33.05h1.87v7.18h-2.9L18.74,35h0v5.21H16.85Z"></path>
        <path d="M26.41,33.05h6.67v1.67h-4.8v1.15h4.55v1.48H28.28V38.5h4.91v1.73H26.41Z"></path>
        <path d="M34.21,37.88h1.87c0,.76.27.82.81.82h2.29c.4,0,.8-.05.8-.6s-.22-.67-2.63-.67c-2.81,0-3.13-.39-3.13-2.16,0-1.29.1-2.3,2.46-2.3h2.61c2.16,0,2.36.87,2.36,2.12v.23H39.78c0-.52-.05-.74-.91-.74H36.8c-.42,0-.71.17-.71.55,0,.63.23.65,2.23.64,2.91,0,3.58.2,3.58,2.29,0,1.93-.55,2.25-3,2.25H36.6c-1.7,0-2.39-.38-2.39-1.94Z"></path>
        <path d="M47.08,35.57c0-2.1,1-2.6,2.69-2.6H52c2.66,0,3,.68,3,2.71H53.09v-.2c0-.51-.32-.66-.88-.66h-2c-1,0-1.17.54-1.17,1.43V37c0,1,.19,1.43,1.07,1.43h2c.84,0,1.09-.1,1.09-1H55v.68c0,1.21-.37,2.16-2.24,2.16h-3c-1.68,0-2.69-.5-2.69-2.6Z"></path>
        <path d="M56,35.57c0-2.1,1-2.6,2.68-2.6h3c1.69,0,2.69.5,2.69,2.6v2.14c0,2.1-1,2.6-2.69,2.6h-3c-1.68,0-2.68-.5-2.68-2.6ZM58,37c0,1,.18,1.43,1.07,1.43h2.39c.88,0,1.07-.39,1.07-1.43v-.78c0-.89-.19-1.43-1.17-1.43H59.12c-1,0-1.17.54-1.17,1.43Z"></path>
        <path d="M65.53,33.05h2.9l3.51,5.22h0V33.05h1.87v7.18h-2.9L67.42,35h0v5.21H65.53Z"></path>
        <path d="M74.64,33.05h7.13v1.79H79.14v5.39H77.27V34.84H74.64Z"></path>
        <path d="M82.59,33.05h5.64c1.44,0,1.83.85,1.83,2.13v.46c0,1-.19,1.53-1,1.76v0c.56.12,1,.41,1,1.59v1.22H88.16v-.86c0-.76-.18-1-.77-1H84.46v1.87H82.59Zm1.87,3.53h3.09c.5,0,.69-.24.69-.75v-.24c0-.63-.27-.75-.86-.75H84.46Z"></path>
        <path d="M94,33.05h2.44l3.35,7.18H97.73L97.15,39H93.36l-.55,1.27H90.72Zm0,4.36h2.39l-1.21-2.69Z"></path>
        <path d="M100.34,35.57c0-2.1,1-2.6,2.69-2.6h2.2c2.66,0,3,.68,3,2.71h-1.87v-.2c0-.51-.32-.66-.88-.66h-2c-1,0-1.17.54-1.17,1.43V37c0,1,.19,1.43,1.07,1.43h2c.84,0,1.09-.1,1.09-1h1.87v.68c0,1.21-.37,2.16-2.25,2.16h-3c-1.69,0-2.69-.5-2.69-2.6Z"></path>
        <path d="M109,33.05h7.13v1.79h-2.63v5.39H111.6V34.84H109Z"></path>
        <path d="M116.78,35.57c0-2.1,1-2.6,2.69-2.6h3c1.68,0,2.68.5,2.68,2.6v2.14c0,2.1-1,2.6-2.68,2.6h-3c-1.69,0-2.69-.5-2.69-2.6ZM118.7,37c0,1,.19,1.43,1.07,1.43h2.39c.89,0,1.07-.39,1.07-1.43v-.78c0-.89-.18-1.43-1.17-1.43h-2.19c-1,0-1.17.54-1.17,1.43Z"></path>
        <path d="M126.28,33.05h5.65c1.44,0,1.82.85,1.82,2.13v.46c0,1-.18,1.53-1,1.76v0c.56.12,1,.41,1,1.59v1.22h-1.87v-.86c0-.76-.19-1-.77-1h-2.94v1.87h-1.87Zm1.87,3.53h3.09c.51,0,.69-.24.69-.75v-.24c0-.63-.26-.75-.85-.75h-2.93Z"></path>
        <path d="M134.91,37.88h1.87c0,.76.27.82.81.82h2.29c.39,0,.8-.05.8-.6s-.22-.67-2.63-.67c-2.81,0-3.13-.39-3.13-2.16,0-1.29.1-2.3,2.46-2.3H140c2.15,0,2.35.87,2.35,2.12v.23h-1.86c0-.52-.06-.74-.91-.74h-2.08c-.42,0-.7.17-.7.55,0,.63.22.65,2.23.64,2.9,0,3.58.2,3.58,2.29,0,1.93-.56,2.25-3,2.25h-2.27c-1.7,0-2.38-.38-2.38-1.94Z"></path>
        <path d="M57.25,50h1.86v6.55H57.25Z"></path>
        <path d="M60.46,50h2.88l3.49,4.75h0V50H68.7v6.55H65.83l-3.49-4.76h0v4.76H60.46Z"></path>
        <path d="M69.83,52.32c0-1.92,1-2.37,2.67-2.37h2.18c2.64,0,3,.61,3,2.46H75.79v-.18c0-.47-.32-.6-.87-.6h-2c-1,0-1.17.5-1.17,1.31v.7c0,1,.19,1.32,1.07,1.32h2c.84,0,1.09-.09,1.09-.91h1.85v.62c0,1.1-.37,2-2.23,2h-3c-1.68,0-2.67-.45-2.67-2.37Z"></path>
        <path d="M79.41,54.72h1.75v1.85H79.41Z"></path>
    </g>
</svg>