<svg width="89" height="89" viewBox="0 0 89 89" fill="none" xmlns="http://www.w3.org/2000/svg">
<path d="M6.24253 27.6487C6.60001 22.1452 11.0247 17.8322 16.533 17.5593C24.5094 17.1641 35.91 16.6875 44.5 16.6875C53.09 16.6875 64.4906 17.1641 72.467 17.5593C77.9753 17.8322 82.4 22.1452 82.7575 27.6487C83.1 32.9215 83.4375 39.4094 83.4375 44.5C83.4375 49.5906 83.1 56.0786 82.7575 61.3513C82.4 66.8548 77.9753 71.1678 72.467 71.4407C64.4906 71.8359 53.09 72.3125 44.5 72.3125C35.91 72.3125 24.5094 71.8359 16.533 71.4407C11.0247 71.1678 6.60001 66.8548 6.24253 61.3513C5.90004 56.0785 5.5625 49.5906 5.5625 44.5C5.5625 39.4094 5.90004 32.9214 6.24253 27.6487Z" fill="#D9CAB2"/>
<path d="M36.1562 33.375V55.625L58.4062 44.5L36.1562 33.375Z" fill="black"/>
</svg>
