<svg width="102" height="76" viewBox="0 0 102 76" fill="none" xmlns="http://www.w3.org/2000/svg">
<ellipse cx="39.5" cy="38" rx="39.5" ry="38" fill="#D9CAB2"/>
<path d="M52.2955 32.3636V41.4545H25.3636V32.3636H52.2955ZM31.5284 76V29.2102C31.5284 26.0473 32.1439 23.4242 33.375 21.3409C34.625 19.2576 36.3295 17.6951 38.4886 16.6534C40.6477 15.6117 43.1004 15.0909 45.8466 15.0909C47.7027 15.0909 49.3977 15.233 50.9318 15.517C52.4848 15.8011 53.6402 16.0568 54.3977 16.2841L52.2386 25.375C51.7652 25.2235 51.178 25.0814 50.4773 24.9489C49.7955 24.8163 49.0947 24.75 48.375 24.75C46.5947 24.75 45.3542 25.1667 44.6534 26C43.9527 26.8144 43.6023 27.9602 43.6023 29.4375V76H31.5284Z" fill="black"/>
</svg>
